<svg xmlns="http://www.w3.org/2000/svg" viewBox="0 0 530 300"><path fill="#FFFFFF" d="M517.7 136.9S410.7 10 265 10 12.3 136.9 12.3 136.9c-6.1 7.2-6.1 19.1 0 26.3 0 0 107 126.9 252.7 126.9s252.7-126.9 252.7-126.9c6.1-7.3 6.1-19.1 0-26.3M265 257.8c-59.5 0-107.8-48.2-107.8-107.8S205.5 42.2 265 42.2 372.8 90.5 372.8 150 324.5 257.8 265 257.8"/><path fill="#FFFFFF" d="M315.8 127.4c-12.7 0-22.9-10.3-22.9-22.9 0-3.3.7-6.5 2-9.3-8.9-4.8-19-7.6-29.9-7.6-34.4 0-62.4 27.9-62.4 62.4s27.9 62.4 62.4 62.4 62.4-27.9 62.4-62.4c0-8.4-1.7-16.3-4.6-23.6-2.2.7-4.6 1-7 1"/></svg>